<svg width="134" height="194" viewBox="0 0 134 194" fill="none" xmlns="http://www.w3.org/2000/svg">
<g clip-path="url(#clip0)" filter="url(#filter0_d)">
<g filter="url(#filter1_d)">
<path d="M4 2.63221V46.1206C4.00568 46.8397 4.29368 47.5278 4.8018 48.0363C5.30992 48.5448 5.99742 48.833 6.71599 48.8387H20.1656L18.2535 44.2071L4.80392 59.4281C4.43753 59.8119 4.19047 60.2939 4.0927 60.8156C3.99493 61.3373 4.05064 61.8762 4.25316 62.3668C4.45569 62.8574 4.79626 63.2785 5.23347 63.579C5.67068 63.8796 6.18575 64.0465 6.71599 64.0596H36.1139C36.8324 64.0539 37.5199 63.7657 38.0281 63.2572C38.5362 62.7487 38.8242 62.0607 38.8299 61.3416V2.63221C38.8299 1.91135 38.5436 1.22001 38.0343 0.710282C37.5249 0.200553 36.8342 -0.0858154 36.1139 -0.0858154C35.3935 -0.0858154 34.7027 0.200553 34.1933 0.710282C33.684 1.22001 33.3979 1.91135 33.3979 2.63221V61.3416L36.1139 58.6236H6.71599L8.62805 63.2551L22.0994 48.0341C22.4669 47.649 22.7143 47.165 22.8112 46.6413C22.9082 46.1177 22.8506 45.5771 22.6455 45.0857C22.4403 44.5943 22.0965 44.1734 21.656 43.8745C21.2156 43.5756 20.6976 43.4116 20.1656 43.4026H6.71599L9.43197 46.1206V2.63221C9.43197 1.91135 9.14588 1.22001 8.63654 0.710282C8.12719 0.200553 7.43631 -0.0858154 6.71599 -0.0858154C5.99566 -0.0858154 5.30478 0.200553 4.79543 0.710282C4.28609 1.22001 4 1.91135 4 2.63221Z" fill="white"/>
</g>
<g filter="url(#filter2_d)">
<path d="M50.1718 20.5701H60.4273L57.7113 17.8521V60.362C57.7113 61.0828 57.9975 61.7742 58.5068 62.2839C59.0162 62.7936 59.7069 63.08 60.4273 63.08C61.1476 63.08 61.8385 62.7936 62.3478 62.2839C62.8572 61.7742 63.1433 61.0828 63.1433 60.362V17.8521C63.1376 17.133 62.8497 16.4449 62.3416 15.9364C61.8335 15.4279 61.1458 15.1397 60.4273 15.134H50.1718C49.4514 15.134 48.7606 15.4204 48.2512 15.9301C47.7419 16.4399 47.4558 17.1312 47.4558 17.8521C47.4558 18.5729 47.7419 19.2643 48.2512 19.774C48.7606 20.2837 49.4514 20.5701 50.1718 20.5701Z" fill="white"/>
</g>
<g filter="url(#filter3_d)">
<path d="M50.1718 37.835H60.4273C61.1476 37.835 61.8385 37.5486 62.3478 37.0389C62.8572 36.5291 63.1433 35.8378 63.1433 35.1169C63.1433 34.3961 62.8572 33.7048 62.3478 33.195C61.8385 32.6853 61.1476 32.3989 60.4273 32.3989H50.1718C49.4514 32.3989 48.7606 32.6853 48.2512 33.195C47.7419 33.7048 47.4558 34.3961 47.4558 35.1169C47.4558 35.8378 47.7419 36.5291 48.2512 37.0389C48.7606 37.5486 49.4514 37.835 50.1718 37.835Z" fill="white"/>
</g>
<g filter="url(#filter4_d)">
<path d="M37.135 74.9306H58.2544L55.9079 70.8426L35.6575 103.459C35.4236 103.873 35.3014 104.341 35.303 104.817C35.3047 105.293 35.43 105.76 35.6668 106.172C35.9036 106.585 36.2436 106.928 36.6535 107.169C37.0633 107.41 37.5288 107.541 38.0042 107.547H65.3812C66.1016 107.547 66.7924 107.261 67.3018 106.751C67.8111 106.241 68.0972 105.55 68.0972 104.829C68.0972 104.108 67.8111 103.417 67.3018 102.907C66.7924 102.397 66.1016 102.111 65.3812 102.111H38.0042L40.3507 106.199L60.6011 73.5824C60.835 73.1683 60.9572 72.7003 60.9556 72.2246C60.9539 71.7489 60.8286 71.2818 60.5918 70.8693C60.355 70.4568 60.0149 70.1131 59.6051 69.872C59.1953 69.631 58.7298 69.5009 58.2544 69.4945H37.135C36.4147 69.4945 35.7238 69.7809 35.2144 70.2906C34.7051 70.8003 34.419 71.4917 34.419 72.2125C34.419 72.9334 34.7051 73.6247 35.2144 74.1345C35.7238 74.6442 36.4147 74.9306 37.135 74.9306Z" fill="white"/>
</g>
<g filter="url(#filter5_d)">
<path d="M75.1153 39.5962V63.3626H84.5669L75.1153 78.5401H95.8002V39.5962" stroke="black" stroke-miterlimit="10" shape-rendering="crispEdges"/>
</g>
<g filter="url(#filter6_d)">
<path d="M117.528 33.073V54.2084" stroke="black" stroke-miterlimit="10"/>
</g>
<g filter="url(#filter7_d)">
<path d="M111.01 73.2998H123.177L100.146 90.6952H126.502L103.644 113.57" stroke="black" stroke-miterlimit="10" shape-rendering="crispEdges"/>
</g>
<g filter="url(#filter8_d)">
<path d="M116.029 101.176L125.198 113.57" stroke="black" stroke-miterlimit="10"/>
</g>
<g filter="url(#filter9_d)">
<path d="M72.3993 39.5962V63.3626C72.405 64.0817 72.693 64.7698 73.2011 65.2783C73.7092 65.7868 74.3967 66.075 75.1153 66.0806H84.567L82.2203 61.9927L72.7688 77.2137C72.5348 77.6278 72.4126 78.0958 72.4143 78.5715C72.4159 79.0472 72.5413 79.5143 72.778 79.9268C73.0148 80.3394 73.3549 80.683 73.7647 80.9241C74.1745 81.1651 74.6399 81.2952 75.1153 81.3016H95.8003C96.5188 81.2959 97.2063 81.0078 97.7144 80.4993C98.2226 79.9908 98.5106 79.3027 98.5162 78.5836V39.5962C98.5162 38.8753 98.2301 38.184 97.7208 37.6743C97.2115 37.1645 96.5206 36.8782 95.8003 36.8782C95.0799 36.8782 94.389 37.1645 93.8797 37.6743C93.3704 38.184 93.0843 38.8753 93.0843 39.5962V78.5401L95.8003 75.8221H75.1153L77.4402 79.91L86.9135 64.689C87.1474 64.2749 87.2697 63.8069 87.2681 63.3312C87.2665 62.8555 87.141 62.3884 86.9042 61.9759C86.6674 61.5634 86.3274 61.2197 85.9175 60.9786C85.5077 60.7376 85.0423 60.6075 84.567 60.6011H75.1153L77.8313 63.3191V39.5962C77.8313 38.8753 77.5452 38.184 77.0358 37.6743C76.5265 37.1645 75.8356 36.8782 75.1153 36.8782C74.395 36.8782 73.7042 37.1645 73.1949 37.6743C72.6855 38.184 72.3993 38.8753 72.3993 39.5962Z" fill="white"/>
</g>
<g filter="url(#filter10_d)">
<path d="M114.812 33.073V54.2084C114.812 54.9293 115.098 55.6206 115.608 56.1303C116.117 56.64 116.808 56.9264 117.528 56.9264C118.248 56.9264 118.939 56.64 119.449 56.1303C119.958 55.6206 120.244 54.9293 120.244 54.2084V33.073C120.244 32.3521 119.958 31.6608 119.449 31.1511C118.939 30.6413 118.248 30.355 117.528 30.355C116.808 30.355 116.117 30.6413 115.608 31.1511C115.098 31.6608 114.812 32.3521 114.812 33.073Z" fill="white"/>
</g>
<g filter="url(#filter11_d)">
<path d="M111.01 76.0178H123.177L121.787 70.9515L98.777 88.3468C98.2769 88.6576 97.8901 89.1214 97.6742 89.6695C97.4582 90.2177 97.4246 90.8209 97.5783 91.3896C97.732 91.9584 98.0647 92.4624 98.5272 92.8269C98.9897 93.1915 99.5574 93.397 100.146 93.4132H126.502L124.568 88.7817L101.71 111.657C101.2 112.167 100.914 112.859 100.914 113.581C100.914 114.303 101.2 114.995 101.71 115.505C102.22 116.016 102.912 116.302 103.633 116.302C104.354 116.302 105.046 116.016 105.556 115.505L128.392 92.6087C128.759 92.2249 129.006 91.7428 129.103 91.2211C129.201 90.6994 129.145 90.1605 128.943 89.6699C128.74 89.1794 128.4 88.7582 127.963 88.4577C127.525 88.1572 127.01 87.9902 126.48 87.9772H100.146L101.515 93.0435L124.546 75.6482C125.046 75.3374 125.433 74.8736 125.649 74.3254C125.865 73.7773 125.899 73.1741 125.745 72.6054C125.591 72.0366 125.259 71.5326 124.796 71.1681C124.334 70.8035 123.766 70.598 123.177 70.5818H111.01C110.29 70.5818 109.599 70.8682 109.089 71.3779C108.58 71.8876 108.294 72.5789 108.294 73.2998C108.294 74.0207 108.58 74.712 109.089 75.2217C109.599 75.7315 110.29 76.0178 111.01 76.0178Z" fill="white"/>
</g>
<g filter="url(#filter12_d)">
<path d="M113.682 102.654L122.852 115.049C124.916 117.832 129.631 115.049 127.545 112.309L118.376 99.9147C116.311 97.1314 111.596 99.9147 113.682 102.654Z" fill="white"/>
</g>
<g filter="url(#filter13_d)">
<path d="M51.9317 142.272H30.2038L32.9198 144.99V135.51C32.9135 135.034 32.7834 134.568 32.5425 134.158C32.3016 133.748 31.9582 133.408 31.546 133.171C31.1338 132.934 30.6671 132.808 30.1918 132.807C29.7164 132.805 29.2488 132.927 28.835 133.162L13.6254 142.642L17.7103 144.99V124.268L14.9943 126.986H51.9317C52.652 126.986 53.3429 126.7 53.8523 126.19C54.3616 125.68 54.6477 124.989 54.6477 124.268C54.6477 123.547 54.3616 122.856 53.8523 122.346C53.3429 121.837 52.652 121.55 51.9317 121.55H14.9943C14.2775 121.561 13.5932 121.851 13.0862 122.359C12.5793 122.866 12.2895 123.551 12.2783 124.268V144.99C12.2847 145.466 12.4147 145.932 12.6556 146.342C12.8965 146.752 13.2399 147.093 13.6521 147.329C14.0643 147.566 14.531 147.692 15.0064 147.694C15.4817 147.695 15.9494 147.573 16.3632 147.339L31.5727 137.858L27.4878 135.51V144.99C27.4935 145.71 27.7815 146.398 28.2896 146.906C28.7978 147.415 29.4853 147.703 30.2038 147.708H51.9317C52.652 147.708 53.3429 147.422 53.8523 146.912C54.3616 146.403 54.6477 145.711 54.6477 144.99C54.6477 144.27 54.3616 143.578 53.8523 143.068C53.3429 142.559 52.652 142.272 51.9317 142.272Z" fill="white"/>
</g>
<g filter="url(#filter14_d)">
<path d="M62.3609 163.538V123.833L59.6449 126.573H75.6801C76.4004 126.573 77.0913 126.287 77.6007 125.777C78.11 125.267 78.3961 124.576 78.3961 123.855C78.3961 123.134 78.11 122.443 77.6007 121.933C77.0913 121.423 76.4004 121.137 75.6801 121.137H59.6449C58.9298 121.154 58.2486 121.445 57.7428 121.951C57.237 122.458 56.9455 123.139 56.929 123.855V163.538C56.929 164.259 57.2152 164.95 57.7245 165.46C58.2339 165.97 58.9246 166.256 59.6449 166.256C60.3653 166.256 61.0561 165.97 61.5655 165.46C62.0748 164.95 62.3609 164.259 62.3609 163.538Z" fill="white"/>
</g>
<g filter="url(#filter15_d)">
<path d="M81.6772 141.25H102.319L99.972 137.162L79.2872 165.56C79.0532 165.975 78.9311 166.443 78.9327 166.918C78.9343 167.394 79.0597 167.861 79.2965 168.274C79.5333 168.686 79.8733 169.03 80.2831 169.271C80.693 169.512 81.1584 169.642 81.6337 169.648H105.534C106.255 169.648 106.946 169.362 107.455 168.852C107.964 168.343 108.25 167.651 108.25 166.93C108.25 166.209 107.964 165.518 107.455 165.008C106.946 164.499 106.255 164.212 105.534 164.212H81.6337L83.9803 168.3L104.644 139.902C104.884 139.491 105.011 139.023 105.014 138.547C105.016 138.071 104.894 137.602 104.658 137.188C104.423 136.774 104.083 136.429 103.672 136.188C103.261 135.947 102.795 135.818 102.319 135.814H81.6772C80.9569 135.814 80.266 136.101 79.7566 136.61C79.2473 137.12 78.9612 137.811 78.9612 138.532C78.9612 139.253 79.2473 139.945 79.7566 140.454C80.266 140.964 80.9569 141.25 81.6772 141.25Z" fill="white"/>
</g>
<g filter="url(#filter16_d)">
<path d="M118.202 183.391V128.748L115.486 131.466H127.371C128.091 131.466 128.782 131.179 129.291 130.669C129.801 130.16 130.087 129.468 130.087 128.748C130.087 128.027 129.801 127.335 129.291 126.826C128.782 126.316 128.091 126.03 127.371 126.03H115.486C114.769 126.041 114.085 126.331 113.578 126.838C113.071 127.345 112.781 128.03 112.77 128.748V183.391C112.77 184.112 113.056 184.803 113.565 185.313C114.075 185.822 114.765 186.109 115.486 186.109C116.206 186.109 116.897 185.822 117.406 185.313C117.916 184.803 118.202 184.112 118.202 183.391Z" fill="white"/>
</g>
</g>
<defs>
<filter id="filter0_d" x="0" y="0" width="134" height="194" filterUnits="userSpaceOnUse" color-interpolation-filters="sRGB">
<feFlood flood-opacity="0" result="BackgroundImageFix"/>
<feColorMatrix in="SourceAlpha" type="matrix" values="0 0 0 0 0 0 0 0 0 0 0 0 0 0 0 0 0 0 127 0" result="hardAlpha"/>
<feOffset dy="4"/>
<feGaussianBlur stdDeviation="2"/>
<feComposite in2="hardAlpha" operator="out"/>
<feColorMatrix type="matrix" values="0 0 0 0 0 0 0 0 0 0 0 0 0 0 0 0 0 0 0.25 0"/>
<feBlend mode="normal" in2="BackgroundImageFix" result="effect1_dropShadow"/>
<feBlend mode="normal" in="SourceGraphic" in2="effect1_dropShadow" result="shape"/>
</filter>
<filter id="filter1_d" x="0" y="-0.0858154" width="42.8299" height="72.1454" filterUnits="userSpaceOnUse" color-interpolation-filters="sRGB">
<feFlood flood-opacity="0" result="BackgroundImageFix"/>
<feColorMatrix in="SourceAlpha" type="matrix" values="0 0 0 0 0 0 0 0 0 0 0 0 0 0 0 0 0 0 127 0" result="hardAlpha"/>
<feOffset dy="4"/>
<feGaussianBlur stdDeviation="2"/>
<feComposite in2="hardAlpha" operator="out"/>
<feColorMatrix type="matrix" values="0 0 0 0 0 0 0 0 0 0 0 0 0 0 0 0 0 0 0.25 0"/>
<feBlend mode="normal" in2="BackgroundImageFix" result="effect1_dropShadow"/>
<feBlend mode="normal" in="SourceGraphic" in2="effect1_dropShadow" result="shape"/>
</filter>
<filter id="filter2_d" x="43.4558" y="15.134" width="23.6875" height="55.946" filterUnits="userSpaceOnUse" color-interpolation-filters="sRGB">
<feFlood flood-opacity="0" result="BackgroundImageFix"/>
<feColorMatrix in="SourceAlpha" type="matrix" values="0 0 0 0 0 0 0 0 0 0 0 0 0 0 0 0 0 0 127 0" result="hardAlpha"/>
<feOffset dy="4"/>
<feGaussianBlur stdDeviation="2"/>
<feComposite in2="hardAlpha" operator="out"/>
<feColorMatrix type="matrix" values="0 0 0 0 0 0 0 0 0 0 0 0 0 0 0 0 0 0 0.25 0"/>
<feBlend mode="normal" in2="BackgroundImageFix" result="effect1_dropShadow"/>
<feBlend mode="normal" in="SourceGraphic" in2="effect1_dropShadow" result="shape"/>
</filter>
<filter id="filter3_d" x="43.4558" y="32.3989" width="23.6875" height="13.436" filterUnits="userSpaceOnUse" color-interpolation-filters="sRGB">
<feFlood flood-opacity="0" result="BackgroundImageFix"/>
<feColorMatrix in="SourceAlpha" type="matrix" values="0 0 0 0 0 0 0 0 0 0 0 0 0 0 0 0 0 0 127 0" result="hardAlpha"/>
<feOffset dy="4"/>
<feGaussianBlur stdDeviation="2"/>
<feComposite in2="hardAlpha" operator="out"/>
<feColorMatrix type="matrix" values="0 0 0 0 0 0 0 0 0 0 0 0 0 0 0 0 0 0 0.25 0"/>
<feBlend mode="normal" in2="BackgroundImageFix" result="effect1_dropShadow"/>
<feBlend mode="normal" in="SourceGraphic" in2="effect1_dropShadow" result="shape"/>
</filter>
<filter id="filter4_d" x="30.419" y="69.4945" width="41.6782" height="46.0524" filterUnits="userSpaceOnUse" color-interpolation-filters="sRGB">
<feFlood flood-opacity="0" result="BackgroundImageFix"/>
<feColorMatrix in="SourceAlpha" type="matrix" values="0 0 0 0 0 0 0 0 0 0 0 0 0 0 0 0 0 0 127 0" result="hardAlpha"/>
<feOffset dy="4"/>
<feGaussianBlur stdDeviation="2"/>
<feComposite in2="hardAlpha" operator="out"/>
<feColorMatrix type="matrix" values="0 0 0 0 0 0 0 0 0 0 0 0 0 0 0 0 0 0 0.25 0"/>
<feBlend mode="normal" in2="BackgroundImageFix" result="effect1_dropShadow"/>
<feBlend mode="normal" in="SourceGraphic" in2="effect1_dropShadow" result="shape"/>
</filter>
<filter id="filter5_d" x="70.2149" y="39.5962" width="30.0853" height="47.4439" filterUnits="userSpaceOnUse" color-interpolation-filters="sRGB">
<feFlood flood-opacity="0" result="BackgroundImageFix"/>
<feColorMatrix in="SourceAlpha" type="matrix" values="0 0 0 0 0 0 0 0 0 0 0 0 0 0 0 0 0 0 127 0" result="hardAlpha"/>
<feOffset dy="4"/>
<feGaussianBlur stdDeviation="2"/>
<feComposite in2="hardAlpha" operator="out"/>
<feColorMatrix type="matrix" values="0 0 0 0 0 0 0 0 0 0 0 0 0 0 0 0 0 0 0.25 0"/>
<feBlend mode="normal" in2="BackgroundImageFix" result="effect1_dropShadow"/>
<feBlend mode="normal" in="SourceGraphic" in2="effect1_dropShadow" result="shape"/>
</filter>
<filter id="filter6_d" x="113.028" y="33.073" width="9" height="29.1354" filterUnits="userSpaceOnUse" color-interpolation-filters="sRGB">
<feFlood flood-opacity="0" result="BackgroundImageFix"/>
<feColorMatrix in="SourceAlpha" type="matrix" values="0 0 0 0 0 0 0 0 0 0 0 0 0 0 0 0 0 0 127 0" result="hardAlpha"/>
<feOffset dy="4"/>
<feGaussianBlur stdDeviation="2"/>
<feComposite in2="hardAlpha" operator="out"/>
<feColorMatrix type="matrix" values="0 0 0 0 0 0 0 0 0 0 0 0 0 0 0 0 0 0 0.25 0"/>
<feBlend mode="normal" in2="BackgroundImageFix" result="effect1_dropShadow"/>
<feBlend mode="normal" in="SourceGraphic" in2="effect1_dropShadow" result="shape"/>
</filter>
<filter id="filter7_d" x="94.6543" y="72.7998" width="37.054" height="49.1237" filterUnits="userSpaceOnUse" color-interpolation-filters="sRGB">
<feFlood flood-opacity="0" result="BackgroundImageFix"/>
<feColorMatrix in="SourceAlpha" type="matrix" values="0 0 0 0 0 0 0 0 0 0 0 0 0 0 0 0 0 0 127 0" result="hardAlpha"/>
<feOffset dy="4"/>
<feGaussianBlur stdDeviation="2"/>
<feComposite in2="hardAlpha" operator="out"/>
<feColorMatrix type="matrix" values="0 0 0 0 0 0 0 0 0 0 0 0 0 0 0 0 0 0 0.25 0"/>
<feBlend mode="normal" in2="BackgroundImageFix" result="effect1_dropShadow"/>
<feBlend mode="normal" in="SourceGraphic" in2="effect1_dropShadow" result="shape"/>
</filter>
<filter id="filter8_d" x="111.627" y="100.879" width="17.9731" height="20.9889" filterUnits="userSpaceOnUse" color-interpolation-filters="sRGB">
<feFlood flood-opacity="0" result="BackgroundImageFix"/>
<feColorMatrix in="SourceAlpha" type="matrix" values="0 0 0 0 0 0 0 0 0 0 0 0 0 0 0 0 0 0 127 0" result="hardAlpha"/>
<feOffset dy="4"/>
<feGaussianBlur stdDeviation="2"/>
<feComposite in2="hardAlpha" operator="out"/>
<feColorMatrix type="matrix" values="0 0 0 0 0 0 0 0 0 0 0 0 0 0 0 0 0 0 0.25 0"/>
<feBlend mode="normal" in2="BackgroundImageFix" result="effect1_dropShadow"/>
<feBlend mode="normal" in="SourceGraphic" in2="effect1_dropShadow" result="shape"/>
</filter>
<filter id="filter9_d" x="68.3993" y="36.8782" width="34.1169" height="52.4234" filterUnits="userSpaceOnUse" color-interpolation-filters="sRGB">
<feFlood flood-opacity="0" result="BackgroundImageFix"/>
<feColorMatrix in="SourceAlpha" type="matrix" values="0 0 0 0 0 0 0 0 0 0 0 0 0 0 0 0 0 0 127 0" result="hardAlpha"/>
<feOffset dy="4"/>
<feGaussianBlur stdDeviation="2"/>
<feComposite in2="hardAlpha" operator="out"/>
<feColorMatrix type="matrix" values="0 0 0 0 0 0 0 0 0 0 0 0 0 0 0 0 0 0 0.25 0"/>
<feBlend mode="normal" in2="BackgroundImageFix" result="effect1_dropShadow"/>
<feBlend mode="normal" in="SourceGraphic" in2="effect1_dropShadow" result="shape"/>
</filter>
<filter id="filter10_d" x="110.812" y="30.355" width="13.432" height="34.5714" filterUnits="userSpaceOnUse" color-interpolation-filters="sRGB">
<feFlood flood-opacity="0" result="BackgroundImageFix"/>
<feColorMatrix in="SourceAlpha" type="matrix" values="0 0 0 0 0 0 0 0 0 0 0 0 0 0 0 0 0 0 127 0" result="hardAlpha"/>
<feOffset dy="4"/>
<feGaussianBlur stdDeviation="2"/>
<feComposite in2="hardAlpha" operator="out"/>
<feColorMatrix type="matrix" values="0 0 0 0 0 0 0 0 0 0 0 0 0 0 0 0 0 0 0.25 0"/>
<feBlend mode="normal" in2="BackgroundImageFix" result="effect1_dropShadow"/>
<feBlend mode="normal" in="SourceGraphic" in2="effect1_dropShadow" result="shape"/>
</filter>
<filter id="filter11_d" x="93.4834" y="70.5818" width="39.6669" height="53.7206" filterUnits="userSpaceOnUse" color-interpolation-filters="sRGB">
<feFlood flood-opacity="0" result="BackgroundImageFix"/>
<feColorMatrix in="SourceAlpha" type="matrix" values="0 0 0 0 0 0 0 0 0 0 0 0 0 0 0 0 0 0 127 0" result="hardAlpha"/>
<feOffset dy="4"/>
<feGaussianBlur stdDeviation="2"/>
<feComposite in2="hardAlpha" operator="out"/>
<feColorMatrix type="matrix" values="0 0 0 0 0 0 0 0 0 0 0 0 0 0 0 0 0 0 0.25 0"/>
<feBlend mode="normal" in2="BackgroundImageFix" result="effect1_dropShadow"/>
<feBlend mode="normal" in="SourceGraphic" in2="effect1_dropShadow" result="shape"/>
</filter>
<filter id="filter12_d" x="109.161" y="98.7607" width="22.9042" height="25.4419" filterUnits="userSpaceOnUse" color-interpolation-filters="sRGB">
<feFlood flood-opacity="0" result="BackgroundImageFix"/>
<feColorMatrix in="SourceAlpha" type="matrix" values="0 0 0 0 0 0 0 0 0 0 0 0 0 0 0 0 0 0 127 0" result="hardAlpha"/>
<feOffset dy="4"/>
<feGaussianBlur stdDeviation="2"/>
<feComposite in2="hardAlpha" operator="out"/>
<feColorMatrix type="matrix" values="0 0 0 0 0 0 0 0 0 0 0 0 0 0 0 0 0 0 0.25 0"/>
<feBlend mode="normal" in2="BackgroundImageFix" result="effect1_dropShadow"/>
<feBlend mode="normal" in="SourceGraphic" in2="effect1_dropShadow" result="shape"/>
</filter>
<filter id="filter13_d" x="8.27832" y="121.55" width="50.3694" height="34.1583" filterUnits="userSpaceOnUse" color-interpolation-filters="sRGB">
<feFlood flood-opacity="0" result="BackgroundImageFix"/>
<feColorMatrix in="SourceAlpha" type="matrix" values="0 0 0 0 0 0 0 0 0 0 0 0 0 0 0 0 0 0 127 0" result="hardAlpha"/>
<feOffset dy="4"/>
<feGaussianBlur stdDeviation="2"/>
<feComposite in2="hardAlpha" operator="out"/>
<feColorMatrix type="matrix" values="0 0 0 0 0 0 0 0 0 0 0 0 0 0 0 0 0 0 0.25 0"/>
<feBlend mode="normal" in2="BackgroundImageFix" result="effect1_dropShadow"/>
<feBlend mode="normal" in="SourceGraphic" in2="effect1_dropShadow" result="shape"/>
</filter>
<filter id="filter14_d" x="52.929" y="121.137" width="29.4672" height="53.1193" filterUnits="userSpaceOnUse" color-interpolation-filters="sRGB">
<feFlood flood-opacity="0" result="BackgroundImageFix"/>
<feColorMatrix in="SourceAlpha" type="matrix" values="0 0 0 0 0 0 0 0 0 0 0 0 0 0 0 0 0 0 127 0" result="hardAlpha"/>
<feOffset dy="4"/>
<feGaussianBlur stdDeviation="2"/>
<feComposite in2="hardAlpha" operator="out"/>
<feColorMatrix type="matrix" values="0 0 0 0 0 0 0 0 0 0 0 0 0 0 0 0 0 0 0.25 0"/>
<feBlend mode="normal" in2="BackgroundImageFix" result="effect1_dropShadow"/>
<feBlend mode="normal" in="SourceGraphic" in2="effect1_dropShadow" result="shape"/>
</filter>
<filter id="filter15_d" x="74.9327" y="135.814" width="37.3177" height="41.834" filterUnits="userSpaceOnUse" color-interpolation-filters="sRGB">
<feFlood flood-opacity="0" result="BackgroundImageFix"/>
<feColorMatrix in="SourceAlpha" type="matrix" values="0 0 0 0 0 0 0 0 0 0 0 0 0 0 0 0 0 0 127 0" result="hardAlpha"/>
<feOffset dy="4"/>
<feGaussianBlur stdDeviation="2"/>
<feComposite in2="hardAlpha" operator="out"/>
<feColorMatrix type="matrix" values="0 0 0 0 0 0 0 0 0 0 0 0 0 0 0 0 0 0 0.25 0"/>
<feBlend mode="normal" in2="BackgroundImageFix" result="effect1_dropShadow"/>
<feBlend mode="normal" in="SourceGraphic" in2="effect1_dropShadow" result="shape"/>
</filter>
<filter id="filter16_d" x="108.77" y="126.03" width="25.3172" height="68.0793" filterUnits="userSpaceOnUse" color-interpolation-filters="sRGB">
<feFlood flood-opacity="0" result="BackgroundImageFix"/>
<feColorMatrix in="SourceAlpha" type="matrix" values="0 0 0 0 0 0 0 0 0 0 0 0 0 0 0 0 0 0 127 0" result="hardAlpha"/>
<feOffset dy="4"/>
<feGaussianBlur stdDeviation="2"/>
<feComposite in2="hardAlpha" operator="out"/>
<feColorMatrix type="matrix" values="0 0 0 0 0 0 0 0 0 0 0 0 0 0 0 0 0 0 0.25 0"/>
<feBlend mode="normal" in2="BackgroundImageFix" result="effect1_dropShadow"/>
<feBlend mode="normal" in="SourceGraphic" in2="effect1_dropShadow" result="shape"/>
</filter>
<clipPath id="clip0">
<rect width="126" height="186" fill="white" transform="translate(4)"/>
</clipPath>
</defs>
</svg>
