<svg id="레이어_1" data-name="레이어 1" xmlns="http://www.w3.org/2000/svg" viewBox="0 0 57.99 85.54"><defs><style>.cls-1{fill:none;stroke:#000;stroke-miterlimit:10;}</style></defs><path d="M819.75,441v20a1.26,1.26,0,0,0,1.25,1.25h6.19l-.88-2.13-6.19,7a1.26,1.26,0,0,0,.88,2.13h13.53a1.26,1.26,0,0,0,1.25-1.25V441a1.25,1.25,0,0,0-2.5,0v27l1.25-1.25H821l.88,2.13,6.2-7a1.26,1.26,0,0,0-.89-2.13H821l1.25,1.25V441a1.25,1.25,0,0,0-2.5,0Z" transform="translate(-819.75 -439.79)"/><path d="M841,449.25h4.72L844.47,448v19.55a1.25,1.25,0,0,0,2.5,0V448a1.26,1.26,0,0,0-1.25-1.25H841a1.25,1.25,0,0,0,0,2.5Z" transform="translate(-819.75 -439.79)"/><path d="M841,457.19h4.72a1.25,1.25,0,0,0,0-2.5H841a1.25,1.25,0,0,0,0,2.5Z" transform="translate(-819.75 -439.79)"/><path d="M835,474.25h9.72l-1.08-1.88-9.32,15a1.26,1.26,0,0,0,1.08,1.88H848a1.25,1.25,0,0,0,0-2.5H835.4l1.08,1.88,9.32-15a1.26,1.26,0,0,0-1.08-1.88H835a1.25,1.25,0,0,0,0,2.5Z" transform="translate(-819.75 -439.79)"/><polyline class="cls-1" points="32.73 18.21 32.73 29.14 37.08 29.14 32.73 36.12 42.25 36.12 42.25 18.21"/><line class="cls-1" x1="52.25" y1="15.21" x2="52.25" y2="24.93"/><polyline class="cls-1" points="49.25 33.71 54.85 33.71 44.25 41.71 56.38 41.71 45.86 52.23"/><line class="cls-1" x1="51.56" y1="46.53" x2="55.78" y2="52.23"/><path d="M851.23,458v10.93a1.26,1.26,0,0,0,1.25,1.25h4.35l-1.08-1.88-4.35,7a1.26,1.26,0,0,0,1.08,1.88H862a1.26,1.26,0,0,0,1.25-1.25V458a1.25,1.25,0,0,0-2.5,0v17.91l1.25-1.25h-9.52l1.07,1.88,4.36-7a1.26,1.26,0,0,0-1.08-1.88h-4.35l1.25,1.25V458a1.25,1.25,0,0,0-2.5,0Z" transform="translate(-819.75 -439.79)"/><path d="M870.75,455v9.72a1.25,1.25,0,0,0,2.5,0V455a1.25,1.25,0,0,0-2.5,0Z" transform="translate(-819.75 -439.79)"/><path d="M869,474.75h5.6l-.64-2.33-10.59,8a1.26,1.26,0,0,0,.63,2.33h12.13l-.89-2.13-10.52,10.52a1.25,1.25,0,0,0,1.77,1.77L877,482.38a1.26,1.26,0,0,0-.88-2.13H864l.63,2.33,10.6-8a1.26,1.26,0,0,0-.63-2.33H869a1.25,1.25,0,0,0,0,2.5Z" transform="translate(-819.75 -439.79)"/><path d="M870.23,487l4.22,5.7c.95,1.28,3.12,0,2.16-1.26l-4.22-5.7c-.95-1.28-3.12,0-2.16,1.26Z" transform="translate(-819.75 -439.79)"/><path d="M841.81,505.22h-10l1.25,1.25v-4.36a1.26,1.26,0,0,0-1.88-1.08l-7,4.36,1.88,1.08v-9.53l-1.25,1.25h17a1.25,1.25,0,0,0,0-2.5h-17a1.27,1.27,0,0,0-1.25,1.25v9.53a1.26,1.26,0,0,0,1.88,1.08l7-4.36-1.88-1.08v4.36a1.26,1.26,0,0,0,1.25,1.25h10a1.25,1.25,0,0,0,0-2.5Z" transform="translate(-819.75 -439.79)"/><path d="M846.61,515V496.74L845.36,498h7.38a1.25,1.25,0,0,0,0-2.5h-7.38a1.28,1.28,0,0,0-1.25,1.25V515a1.25,1.25,0,0,0,2.5,0Z" transform="translate(-819.75 -439.79)"/><path d="M855.5,504.75H865l-1.08-1.88-9.52,13.06a1.26,1.26,0,0,0,1.08,1.88h11a1.25,1.25,0,0,0,0-2.5h-11l1.08,1.88,9.51-13.06a1.25,1.25,0,0,0-1.07-1.88h-9.5a1.25,1.25,0,0,0,0,2.5Z" transform="translate(-819.75 -439.79)"/><path d="M872.31,524.13V499l-1.25,1.25h5.47a1.25,1.25,0,0,0,0-2.5h-5.47a1.27,1.27,0,0,0-1.25,1.25v25.13a1.25,1.25,0,0,0,2.5,0Z" transform="translate(-819.75 -439.79)"/></svg>